<svg xmlns="http://www.w3.org/2000/svg" viewBox="0 0 512 512">
  <!-- Background with rounded corners -->
  <rect x="0" y="0" width="512" height="512" rx="128" ry="128" fill="#f8f9fa" />
  
  <!-- Colorful progress bars (stacked horizontally) -->
  <g transform="translate(80, 100)">
    <!-- Protein Bar (Red) -->
    <rect x="0" y="0" width="352" height="60" rx="30" ry="30" fill="#f0f0f5" />
    <rect x="0" y="0" width="176" height="60" rx="30" ry="30" fill="#ff7f7f" />
    <circle cx="176" cy="30" r="35" fill="#ff6b6b" stroke="#f8f9fa" stroke-width="4" />
    
    <!-- Carbs Bar (Yellow) -->
    <rect x="0" y="80" width="352" height="60" rx="30" ry="30" fill="#f0f0f5" />
    <rect x="0" y="80" width="120" height="60" rx="30" ry="30" fill="#ffe066" />
    <circle cx="120" cy="110" r="35" fill="#ffd43b" stroke="#f8f9fa" stroke-width="4" />
    
    <!-- Fiber Bar (Purple) -->
    <rect x="0" y="160" width="352" height="60" rx="30" ry="30" fill="#f0f0f5" />
    <rect x="0" y="160" width="230" height="60" rx="30" ry="30" fill="#cc99cc" />
    <circle cx="230" cy="190" r="35" fill="#be99be" stroke="#f8f9fa" stroke-width="4" />
    
    <!-- Fat Bar (Green) -->
    <rect x="0" y="240" width="352" height="60" rx="30" ry="30" fill="#f0f0f5" />
    <rect x="0" y="240" width="70" height="60" rx="30" ry="30" fill="#17B978" />
    <circle cx="70" cy="270" r="35" fill="#17B978" stroke="#f8f9fa" stroke-width="4" />
  </g>
</svg>